<svg xmlns="http://www.w3.org/2000/svg" xmlns:xlink="http://www.w3.org/1999/xlink" width="640" height="385.65"><rect width="640" height="385.65" rx="5" ry="5" class="a"/><svg y="0%" x="0%"><circle cx="20" cy="20" r="6" fill="#ff5f58"/><circle cx="40" cy="20" r="6" fill="#ffbd2e"/><circle cx="60" cy="20" r="6" fill="#18c132"/></svg><svg height="325.65" viewBox="0 0 60 32.565" width="600" x="15" xmlns="http://www.w3.org/2000/svg" xmlns:xlink="http://www.w3.org/1999/xlink" y="50"><style>@keyframes i{0%{transform:translateX(0)}.1%{transform:translateX(-60px)}9.4%{transform:translateX(-120px)}9.8%{transform:translateX(-180px)}13.1%{transform:translateX(-420px)}22.4%{transform:translateX(-480px)}23.1%{transform:translateX(-540px)}24.2%{transform:translateX(-600px)}24.8%{transform:translateX(-660px)}25.2%{transform:translateX(-720px)}26.2%{transform:translateX(-780px)}30.2%{transform:translateX(-840px)}39.5%{transform:translateX(-1020px)}46.1%{transform:translateX(-1260px)}50.4%{transform:translateX(-1500px)}53.1%{transform:translateX(-1680px)}55.2%{transform:translateX(-1860px)}57.6%{transform:translateX(-2040px)}59.6%{transform:translateX(-2220px)}62.5%{transform:translateX(-2400px)}64.7%{transform:translateX(-2580px)}68.3%{transform:translateX(-2700px)}75%{transform:translateX(-2880px)}75.1%{transform:translateX(-3000px)}83.2%{transform:translateX(-3060px)}87.5%{transform:translateX(-3120px)}88.2%{transform:translateX(-3180px)}90.7%{transform:translateX(-3360px)}to{transform:translateX(-3480px)}}.a{fill:#282d35}.f{fill:#b9c0cb}</style><g font-size="1.67" font-family="Monaco,Consolas,Menlo,'Bitstream Vera Sans Mono','Powerline Symbols',monospace"><defs><symbol id="1"><text y="1.67" class="f">bash-3.2$</text></symbol><symbol id="2"><text y="1.67" class="f">bash-3.2$</text><text x="10.02" y="1.67" class="f">l</text></symbol><symbol id="3"><text y="1.67" class="f">bash-3.2$</text><text x="10.02" y="1.67" class="f">ls</text></symbol><symbol id="4"><text y="1.67" class="f">CODE_OF_CONDUCT.md</text><text x="24.048" y="1.67" class="f">example</text></symbol><symbol id="5"><text y="1.67" class="f">CONTRIBUTING.md</text><text x="24.048" y="1.67" class="f">gallery.sh</text></symbol><symbol id="6"><text y="1.67" class="f">DONE</text><text x="24.048" y="1.67" class="f">logo.svg</text></symbol><symbol id="7"><text y="1.67" class="f">LICENSE</text><text x="24.048" y="1.67" class="f">man</text></symbol><symbol id="8"><text y="1.67" class="f">README.md</text><text x="24.048" y="1.67" class="f">node_modules</text></symbol><symbol id="9"><text y="1.67" class="f">Session.vim</text><text x="24.048" y="1.67" class="f">package-lock.json</text></symbol><symbol id="10"><text y="1.67" class="f">TODO</text><text x="24.048" y="1.67" class="f">package.json</text></symbol><symbol id="11"><text y="1.67" class="f">appveyor.yml</text><text x="24.048" y="1.67" class="f">src</text></symbol><symbol id="12"><text y="1.67" class="f">coverage</text><text x="24.048" y="1.67" class="f">test</text></symbol><symbol id="13"><text y="1.67" class="f">demo.svg</text><text x="24.048" y="1.67" class="f">vimrc</text></symbol><symbol id="14"><text y="1.67" class="f">bash-3.2$</text><text x="10.02" y="1.67" class="f">itrash</text></symbol><symbol id="15"><text y="1.67" class="f">?</text><text x="2.004" y="1.67" class="f">Select</text><text x="9.018" y="1.67" class="f">items</text><text x="15.03" y="1.67" class="f">to</text><text x="18.036" y="1.67" class="f">delete:</text><text x="26.052" y="1.67" class="f">(Press</text><text x="33.066" y="1.67" class="f">&lt;space&gt;</text><text x="41.082" y="1.67" class="f">to</text><text x="44.088" y="1.67" class="f">select,</text><text x="52.104" y="1.67" class="f">&lt;a&gt;</text><text x="56.112" y="1.67" class="f">to</text><text x="59.118" y="1.67" class="f">t</text></symbol><symbol id="16"><text y="1.67" class="f">oggle</text><text x="6.012" y="1.67" class="f">all,</text><text x="11.022" y="1.67" class="f">&lt;i&gt;</text><text x="15.03" y="1.67" class="f">to</text><text x="18.036" y="1.67" class="f">invert</text><text x="25.05" y="1.67" class="f">selection)</text></symbol><symbol id="17"><text y="1.67" class="f">❯◯</text><text x="3.006" y="1.67" class="f">CODE_OF_CONDUCT.md</text></symbol><symbol id="18"><text x="1.002" y="1.67" class="f">◯</text><text x="3.006" y="1.67" class="f">CONTRIBUTING.md</text></symbol><symbol id="19"><text x="1.002" y="1.67" class="f">◯</text><text x="3.006" y="1.67" class="f">DONE</text></symbol><symbol id="20"><text x="1.002" y="1.67" class="f">◯</text><text x="3.006" y="1.67" class="f">LICENSE</text></symbol><symbol id="21"><text x="1.002" y="1.67" class="f">◯</text><text x="3.006" y="1.67" class="f">README.md</text></symbol><symbol id="22"><text x="1.002" y="1.67" class="f">◯</text><text x="3.006" y="1.67" class="f">Session.vim</text></symbol><symbol id="23"><text x="1.002" y="1.67" class="f">◯</text><text x="3.006" y="1.67" class="f">TODO</text></symbol><symbol id="24"><text y="1.67" class="f">(Move</text><text x="6.012" y="1.67" class="f">up</text><text x="9.018" y="1.67" class="f">and</text><text x="13.026" y="1.67" class="f">down</text><text x="18.036" y="1.67" class="f">to</text><text x="21.042" y="1.67" class="f">reveal</text><text x="28.056" y="1.67" class="f">more</text><text x="33.066" y="1.67" class="f">choices)</text></symbol><symbol id="25"><text y="1.67" class="f">?</text><text x="2.004" y="1.67" class="f">Select</text><text x="9.018" y="1.67" class="f">items</text><text x="15.03" y="1.67" class="f">to</text><text x="18.036" y="1.67" class="f">delete:</text></symbol><symbol id="26"><text y="1.67" class="f">❯◉</text><text x="3.006" y="1.67" class="f">CODE_OF_CONDUCT.md</text></symbol><symbol id="27"><text x="1.002" y="1.67" class="f">◉</text><text x="3.006" y="1.67" class="f">CODE_OF_CONDUCT.md</text></symbol><symbol id="28"><text y="1.67" class="f">❯◯</text><text x="3.006" y="1.67" class="f">CONTRIBUTING.md</text></symbol><symbol id="29"><text y="1.67" class="f">❯◉</text><text x="3.006" y="1.67" class="f">CONTRIBUTING.md</text></symbol><symbol id="30"><text x="1.002" y="1.67" class="f">◉</text><text x="3.006" y="1.67" class="f">CONTRIBUTING.md</text></symbol><symbol id="31"><text y="1.67" class="f">❯◯</text><text x="3.006" y="1.67" class="f">DONE</text></symbol><symbol id="32"><text y="1.67" class="f">❯◉</text><text x="3.006" y="1.67" class="f">DONE</text></symbol><symbol id="33"><text x="1.002" y="1.67" class="f">◉</text><text x="3.006" y="1.67" class="f">DONE</text></symbol><symbol id="34"><text y="1.67" class="f">❯◯</text><text x="3.006" y="1.67" class="f">LICENSE</text></symbol><symbol id="35"><text y="1.67" class="f">❯◉</text><text x="3.006" y="1.67" class="f">LICENSE</text></symbol><symbol id="36"><text x="1.002" y="1.67" class="f">◉</text><text x="3.006" y="1.67" class="f">LICENSE</text></symbol><symbol id="37"><text y="1.67" class="f">❯◯</text><text x="3.006" y="1.67" class="f">README.md</text></symbol><symbol id="38"><text x="1.002" y="1.67" class="f">◯</text><text x="3.006" y="1.67" class="f">appveyor.yml</text></symbol><symbol id="39"><text y="1.67" class="f">?</text><text x="2.004" y="1.67" class="f">Select</text><text x="9.018" y="1.67" class="f">items</text><text x="15.03" y="1.67" class="f">to</text><text x="18.036" y="1.67" class="f">delete:</text><text x="26.052" y="1.67" class="f">CODE_OF_CONDUCT.md,</text><text x="46.092" y="1.67" class="f">CONTRIBUTING.m</text></symbol><symbol id="40"><text y="1.67" class="f">d,</text><text x="3.006" y="1.67" class="f">DONE,</text><text x="9.018" y="1.67" class="f">LICENSE,</text><text x="18.036" y="1.67" class="f">README.md</text></symbol><symbol id="41"><text y="1.67" class="f">Session.vim</text><text x="24.048" y="1.67" class="f">man</text></symbol><symbol id="42"><text y="1.67" class="f">TODO</text><text x="24.048" y="1.67" class="f">node_modules</text></symbol><symbol id="43"><text y="1.67" class="f">appveyor.yml</text><text x="24.048" y="1.67" class="f">package-lock.json</text></symbol><symbol id="44"><text y="1.67" class="f">coverage</text><text x="24.048" y="1.67" class="f">package.json</text></symbol><symbol id="45"><text y="1.67" class="f">demo.svg</text><text x="24.048" y="1.67" class="f">src</text></symbol><symbol id="46"><text y="1.67" class="f">example</text><text x="24.048" y="1.67" class="f">test</text></symbol><symbol id="47"><text y="1.67" class="f">gallery.sh</text><text x="24.048" y="1.67" class="f">vimrc</text></symbol><symbol id="48"><text y="1.67" class="f">logo.svg</text></symbol><symbol id="a"><path fill="transparent" d="M0 0h60v16H0z"/></symbol><symbol id="b"><path fill="#6f7683" d="M0 0h1.102v2.171H0z"/></symbol></defs><path class="a" d="M0 0h60v32.565H0z"/><g style="animation-duration:16.183583000000006s;animation-iteration-count:infinite;animation-name:i;animation-timing-function:steps(1,end)"><svg width="3540"><svg><use xlink:href="#a"/><use xlink:href="#b" x="-.004"/></svg><svg x="60"><use xlink:href="#a"/><use xlink:href="#b" x="9.996"/><use xlink:href="#1"/></svg><svg x="120"><use xlink:href="#a"/><use xlink:href="#b" x="10.996"/><use xlink:href="#2"/></svg><svg x="180"><use xlink:href="#a"/><use xlink:href="#b" x="11.996"/><use xlink:href="#3"/></svg><svg x="240"><use xlink:href="#a"/><use xlink:href="#b" x="-.004" y="2.146"/><use xlink:href="#3"/></svg><svg x="300"><use xlink:href="#a"/><use xlink:href="#b" x="-.004" y="17.343"/><use xlink:href="#3"/><use xlink:href="#4" y="2.171"/><use xlink:href="#5" y="4.342"/><use xlink:href="#6" y="6.513"/><use xlink:href="#7" y="8.684"/><use xlink:href="#8" y="10.855"/><use xlink:href="#9" y="13.026"/><use xlink:href="#10" y="15.197"/></svg><svg x="360"><use xlink:href="#a"/><use xlink:href="#b" x="-.004" y="23.856"/><use xlink:href="#3"/><use xlink:href="#4" y="2.171"/><use xlink:href="#5" y="4.342"/><use xlink:href="#6" y="6.513"/><use xlink:href="#7" y="8.684"/><use xlink:href="#8" y="10.855"/><use xlink:href="#9" y="13.026"/><use xlink:href="#10" y="15.197"/><use xlink:href="#11" y="17.368"/><use xlink:href="#12" y="19.539"/><use xlink:href="#13" y="21.71"/></svg><svg x="420"><use xlink:href="#a"/><use xlink:href="#b" x="9.996" y="23.856"/><use xlink:href="#3"/><use xlink:href="#4" y="2.171"/><use xlink:href="#5" y="4.342"/><use xlink:href="#6" y="6.513"/><use xlink:href="#7" y="8.684"/><use xlink:href="#8" y="10.855"/><use xlink:href="#9" y="13.026"/><use xlink:href="#10" y="15.197"/><use xlink:href="#11" y="17.368"/><use xlink:href="#12" y="19.539"/><use xlink:href="#13" y="21.71"/><use xlink:href="#1" y="23.881"/></svg><svg x="480"><use xlink:href="#a"/><use xlink:href="#b" x="10.996" y="23.856"/><use xlink:href="#3"/><use xlink:href="#4" y="2.171"/><use xlink:href="#5" y="4.342"/><use xlink:href="#6" y="6.513"/><use xlink:href="#7" y="8.684"/><use xlink:href="#8" y="10.855"/><use xlink:href="#9" y="13.026"/><use xlink:href="#10" y="15.197"/><use xlink:href="#11" y="17.368"/><use xlink:href="#12" y="19.539"/><use xlink:href="#13" y="21.71"/><text y="25.551" class="f">bash-3.2$</text><text x="10.02" y="25.551" class="f">i</text></svg><svg x="540"><use xlink:href="#a"/><use xlink:href="#b" x="11.996" y="23.856"/><use xlink:href="#3"/><use xlink:href="#4" y="2.171"/><use xlink:href="#5" y="4.342"/><use xlink:href="#6" y="6.513"/><use xlink:href="#7" y="8.684"/><use xlink:href="#8" y="10.855"/><use xlink:href="#9" y="13.026"/><use xlink:href="#10" y="15.197"/><use xlink:href="#11" y="17.368"/><use xlink:href="#12" y="19.539"/><use xlink:href="#13" y="21.71"/><text y="25.551" class="f">bash-3.2$</text><text x="10.02" y="25.551" class="f">it</text></svg><svg x="600"><use xlink:href="#a"/><use xlink:href="#b" x="12.996" y="23.856"/><use xlink:href="#3"/><use xlink:href="#4" y="2.171"/><use xlink:href="#5" y="4.342"/><use xlink:href="#6" y="6.513"/><use xlink:href="#7" y="8.684"/><use xlink:href="#8" y="10.855"/><use xlink:href="#9" y="13.026"/><use xlink:href="#10" y="15.197"/><use xlink:href="#11" y="17.368"/><use xlink:href="#12" y="19.539"/><use xlink:href="#13" y="21.71"/><text y="25.551" class="f">bash-3.2$</text><text x="10.02" y="25.551" class="f">itr</text></svg><svg x="660"><use xlink:href="#a"/><use xlink:href="#b" x="13.996" y="23.856"/><use xlink:href="#3"/><use xlink:href="#4" y="2.171"/><use xlink:href="#5" y="4.342"/><use xlink:href="#6" y="6.513"/><use xlink:href="#7" y="8.684"/><use xlink:href="#8" y="10.855"/><use xlink:href="#9" y="13.026"/><use xlink:href="#10" y="15.197"/><use xlink:href="#11" y="17.368"/><use xlink:href="#12" y="19.539"/><use xlink:href="#13" y="21.71"/><text y="25.551" class="f">bash-3.2$</text><text x="10.02" y="25.551" class="f">itra</text></svg><svg x="720"><use xlink:href="#a"/><use xlink:href="#b" x="14.996" y="23.856"/><use xlink:href="#3"/><use xlink:href="#4" y="2.171"/><use xlink:href="#5" y="4.342"/><use xlink:href="#6" y="6.513"/><use xlink:href="#7" y="8.684"/><use xlink:href="#8" y="10.855"/><use xlink:href="#9" y="13.026"/><use xlink:href="#10" y="15.197"/><use xlink:href="#11" y="17.368"/><use xlink:href="#12" y="19.539"/><use xlink:href="#13" y="21.71"/><text y="25.551" class="f">bash-3.2$</text><text x="10.02" y="25.551" class="f">itras</text></svg><svg x="780"><use xlink:href="#a"/><use xlink:href="#b" x="15.996" y="23.856"/><use xlink:href="#3"/><use xlink:href="#4" y="2.171"/><use xlink:href="#5" y="4.342"/><use xlink:href="#6" y="6.513"/><use xlink:href="#7" y="8.684"/><use xlink:href="#8" y="10.855"/><use xlink:href="#9" y="13.026"/><use xlink:href="#10" y="15.197"/><use xlink:href="#11" y="17.368"/><use xlink:href="#12" y="19.539"/><use xlink:href="#13" y="21.71"/><use xlink:href="#14" y="23.881"/></svg><svg x="840"><use xlink:href="#a"/><use xlink:href="#b" x="-.004" y="26.027"/><use xlink:href="#3"/><use xlink:href="#4" y="2.171"/><use xlink:href="#5" y="4.342"/><use xlink:href="#6" y="6.513"/><use xlink:href="#7" y="8.684"/><use xlink:href="#8" y="10.855"/><use xlink:href="#9" y="13.026"/><use xlink:href="#10" y="15.197"/><use xlink:href="#11" y="17.368"/><use xlink:href="#12" y="19.539"/><use xlink:href="#13" y="21.71"/><use xlink:href="#14" y="23.881"/></svg><svg x="900"><use xlink:href="#a"/><use xlink:href="#b" x="40.996" y="32.54"/><use xlink:href="#9"/><use xlink:href="#10" y="2.171"/><use xlink:href="#11" y="4.342"/><use xlink:href="#12" y="6.513"/><use xlink:href="#13" y="8.684"/><use xlink:href="#14" y="10.855"/><use xlink:href="#15" y="13.026"/><use xlink:href="#16" y="15.197"/><use xlink:href="#17" y="17.368"/><use xlink:href="#18" y="19.539"/><use xlink:href="#19" y="21.71"/><use xlink:href="#20" y="23.881"/><use xlink:href="#21" y="26.052"/><use xlink:href="#22" y="28.223"/><use xlink:href="#23" y="30.394"/><use xlink:href="#24" y="32.565"/></svg><svg x="960"><use xlink:href="#a"/><use xlink:href="#b" x="-.004" y="32.54"/><use xlink:href="#9"/><use xlink:href="#10" y="2.171"/><use xlink:href="#11" y="4.342"/><use xlink:href="#12" y="6.513"/><use xlink:href="#13" y="8.684"/><use xlink:href="#14" y="10.855"/><use xlink:href="#15" y="13.026"/><use xlink:href="#16" y="15.197"/><use xlink:href="#17" y="17.368"/><use xlink:href="#18" y="19.539"/><use xlink:href="#19" y="21.71"/><use xlink:href="#20" y="23.881"/><use xlink:href="#21" y="26.052"/><use xlink:href="#22" y="28.223"/><use xlink:href="#23" y="30.394"/><use xlink:href="#24" y="32.565"/></svg><svg x="1020"><use xlink:href="#a"/><use xlink:href="#b" x="40.996" y="32.54"/><use xlink:href="#9"/><use xlink:href="#10" y="2.171"/><use xlink:href="#11" y="4.342"/><use xlink:href="#12" y="6.513"/><use xlink:href="#13" y="8.684"/><use xlink:href="#14" y="10.855"/><use xlink:href="#15" y="13.026"/><use xlink:href="#16" y="15.197"/><use xlink:href="#17" y="17.368"/><use xlink:href="#18" y="19.539"/><use xlink:href="#19" y="21.71"/><use xlink:href="#20" y="23.881"/><use xlink:href="#21" y="26.052"/><use xlink:href="#22" y="28.223"/><use xlink:href="#23" y="30.394"/><use xlink:href="#24" y="32.565"/></svg><svg x="1080"><use xlink:href="#a"/><use xlink:href="#b" x="-.004" y="13.001"/><use xlink:href="#9"/><use xlink:href="#10" y="2.171"/><use xlink:href="#11" y="4.342"/><use xlink:href="#12" y="6.513"/><use xlink:href="#13" y="8.684"/><use xlink:href="#14" y="10.855"/></svg><svg x="1140"><use xlink:href="#a"/><use xlink:href="#b" x="40.996" y="30.369"/><use xlink:href="#9"/><use xlink:href="#10" y="2.171"/><use xlink:href="#11" y="4.342"/><use xlink:href="#12" y="6.513"/><use xlink:href="#13" y="8.684"/><use xlink:href="#14" y="10.855"/><use xlink:href="#25" y="13.026"/><use xlink:href="#26" y="15.197"/><use xlink:href="#18" y="17.368"/><use xlink:href="#19" y="19.539"/><use xlink:href="#20" y="21.71"/><use xlink:href="#21" y="23.881"/><use xlink:href="#22" y="26.052"/><use xlink:href="#23" y="28.223"/><use xlink:href="#24" y="30.394"/></svg><svg x="1200"><use xlink:href="#a"/><use xlink:href="#b" x="-.004" y="30.369"/><use xlink:href="#9"/><use xlink:href="#10" y="2.171"/><use xlink:href="#11" y="4.342"/><use xlink:href="#12" y="6.513"/><use xlink:href="#13" y="8.684"/><use xlink:href="#14" y="10.855"/><use xlink:href="#25" y="13.026"/><use xlink:href="#26" y="15.197"/><use xlink:href="#18" y="17.368"/><use xlink:href="#19" y="19.539"/><use xlink:href="#20" y="21.71"/><use xlink:href="#21" y="23.881"/><use xlink:href="#22" y="26.052"/><use xlink:href="#23" y="28.223"/><use xlink:href="#24" y="30.394"/></svg><svg x="1260"><use xlink:href="#a"/><use xlink:href="#b" x="40.996" y="30.369"/><use xlink:href="#9"/><use xlink:href="#10" y="2.171"/><use xlink:href="#11" y="4.342"/><use xlink:href="#12" y="6.513"/><use xlink:href="#13" y="8.684"/><use xlink:href="#14" y="10.855"/><use xlink:href="#25" y="13.026"/><use xlink:href="#26" y="15.197"/><use xlink:href="#18" y="17.368"/><use xlink:href="#19" y="19.539"/><use xlink:href="#20" y="21.71"/><use xlink:href="#21" y="23.881"/><use xlink:href="#22" y="26.052"/><use xlink:href="#23" y="28.223"/><use xlink:href="#24" y="30.394"/></svg><svg x="1320"><use xlink:href="#a"/><use xlink:href="#b" x="-.004" y="13.001"/><use xlink:href="#9"/><use xlink:href="#10" y="2.171"/><use xlink:href="#11" y="4.342"/><use xlink:href="#12" y="6.513"/><use xlink:href="#13" y="8.684"/><use xlink:href="#14" y="10.855"/></svg><svg x="1380"><use xlink:href="#a"/><use xlink:href="#b" x="40.996" y="30.369"/><use xlink:href="#9"/><use xlink:href="#10" y="2.171"/><use xlink:href="#11" y="4.342"/><use xlink:href="#12" y="6.513"/><use xlink:href="#13" y="8.684"/><use xlink:href="#14" y="10.855"/><use xlink:href="#25" y="13.026"/><use xlink:href="#27" y="15.197"/><use xlink:href="#28" y="17.368"/><use xlink:href="#19" y="19.539"/><use xlink:href="#20" y="21.71"/><use xlink:href="#21" y="23.881"/><use xlink:href="#22" y="26.052"/><use xlink:href="#23" y="28.223"/><use xlink:href="#24" y="30.394"/></svg><svg x="1440"><use xlink:href="#a"/><use xlink:href="#b" x="-.004" y="30.369"/><use xlink:href="#9"/><use xlink:href="#10" y="2.171"/><use xlink:href="#11" y="4.342"/><use xlink:href="#12" y="6.513"/><use xlink:href="#13" y="8.684"/><use xlink:href="#14" y="10.855"/><use xlink:href="#25" y="13.026"/><use xlink:href="#27" y="15.197"/><use xlink:href="#28" y="17.368"/><use xlink:href="#19" y="19.539"/><use xlink:href="#20" y="21.71"/><use xlink:href="#21" y="23.881"/><use xlink:href="#22" y="26.052"/><use xlink:href="#23" y="28.223"/><use xlink:href="#24" y="30.394"/></svg><svg x="1500"><use xlink:href="#a"/><use xlink:href="#b" x="40.996" y="30.369"/><use xlink:href="#9"/><use xlink:href="#10" y="2.171"/><use xlink:href="#11" y="4.342"/><use xlink:href="#12" y="6.513"/><use xlink:href="#13" y="8.684"/><use xlink:href="#14" y="10.855"/><use xlink:href="#25" y="13.026"/><use xlink:href="#27" y="15.197"/><use xlink:href="#28" y="17.368"/><use xlink:href="#19" y="19.539"/><use xlink:href="#20" y="21.71"/><use xlink:href="#21" y="23.881"/><use xlink:href="#22" y="26.052"/><use xlink:href="#23" y="28.223"/><use xlink:href="#24" y="30.394"/></svg><svg x="1560"><use xlink:href="#a"/><use xlink:href="#b" x="-.004" y="13.001"/><use xlink:href="#9"/><use xlink:href="#10" y="2.171"/><use xlink:href="#11" y="4.342"/><use xlink:href="#12" y="6.513"/><use xlink:href="#13" y="8.684"/><use xlink:href="#14" y="10.855"/></svg><svg x="1620"><use xlink:href="#a"/><use xlink:href="#b" x="40.996" y="30.369"/><use xlink:href="#9"/><use xlink:href="#10" y="2.171"/><use xlink:href="#11" y="4.342"/><use xlink:href="#12" y="6.513"/><use xlink:href="#13" y="8.684"/><use xlink:href="#14" y="10.855"/><use xlink:href="#25" y="13.026"/><use xlink:href="#27" y="15.197"/><use xlink:href="#29" y="17.368"/><use xlink:href="#19" y="19.539"/><use xlink:href="#20" y="21.71"/><use xlink:href="#21" y="23.881"/><use xlink:href="#22" y="26.052"/><use xlink:href="#23" y="28.223"/><use xlink:href="#24" y="30.394"/></svg><svg x="1680"><use xlink:href="#a"/><use xlink:href="#b" x="40.996" y="30.369"/><use xlink:href="#9"/><use xlink:href="#10" y="2.171"/><use xlink:href="#11" y="4.342"/><use xlink:href="#12" y="6.513"/><use xlink:href="#13" y="8.684"/><use xlink:href="#14" y="10.855"/><use xlink:href="#25" y="13.026"/><use xlink:href="#27" y="15.197"/><use xlink:href="#29" y="17.368"/><use xlink:href="#19" y="19.539"/><use xlink:href="#20" y="21.71"/><use xlink:href="#21" y="23.881"/><use xlink:href="#22" y="26.052"/><use xlink:href="#23" y="28.223"/><use xlink:href="#24" y="30.394"/></svg><svg x="1740"><use xlink:href="#a"/><use xlink:href="#b" x="-.004" y="13.001"/><use xlink:href="#9"/><use xlink:href="#10" y="2.171"/><use xlink:href="#11" y="4.342"/><use xlink:href="#12" y="6.513"/><use xlink:href="#13" y="8.684"/><use xlink:href="#14" y="10.855"/></svg><svg x="1800"><use xlink:href="#a"/><use xlink:href="#b" x="40.996" y="30.369"/><use xlink:href="#9"/><use xlink:href="#10" y="2.171"/><use xlink:href="#11" y="4.342"/><use xlink:href="#12" y="6.513"/><use xlink:href="#13" y="8.684"/><use xlink:href="#14" y="10.855"/><use xlink:href="#25" y="13.026"/><use xlink:href="#27" y="15.197"/><use xlink:href="#30" y="17.368"/><use xlink:href="#31" y="19.539"/><use xlink:href="#20" y="21.71"/><use xlink:href="#21" y="23.881"/><use xlink:href="#22" y="26.052"/><use xlink:href="#23" y="28.223"/><use xlink:href="#24" y="30.394"/></svg><svg x="1860"><use xlink:href="#a"/><use xlink:href="#b" x="40.996" y="30.369"/><use xlink:href="#9"/><use xlink:href="#10" y="2.171"/><use xlink:href="#11" y="4.342"/><use xlink:href="#12" y="6.513"/><use xlink:href="#13" y="8.684"/><use xlink:href="#14" y="10.855"/><use xlink:href="#25" y="13.026"/><use xlink:href="#27" y="15.197"/><use xlink:href="#30" y="17.368"/><use xlink:href="#31" y="19.539"/><use xlink:href="#20" y="21.71"/><use xlink:href="#21" y="23.881"/><use xlink:href="#22" y="26.052"/><use xlink:href="#23" y="28.223"/><use xlink:href="#24" y="30.394"/></svg><svg x="1920"><use xlink:href="#a"/><use xlink:href="#b" x="-.004" y="13.001"/><use xlink:href="#9"/><use xlink:href="#10" y="2.171"/><use xlink:href="#11" y="4.342"/><use xlink:href="#12" y="6.513"/><use xlink:href="#13" y="8.684"/><use xlink:href="#14" y="10.855"/></svg><svg x="1980"><use xlink:href="#a"/><use xlink:href="#b" x="40.996" y="30.369"/><use xlink:href="#9"/><use xlink:href="#10" y="2.171"/><use xlink:href="#11" y="4.342"/><use xlink:href="#12" y="6.513"/><use xlink:href="#13" y="8.684"/><use xlink:href="#14" y="10.855"/><use xlink:href="#25" y="13.026"/><use xlink:href="#27" y="15.197"/><use xlink:href="#30" y="17.368"/><use xlink:href="#32" y="19.539"/><use xlink:href="#20" y="21.71"/><use xlink:href="#21" y="23.881"/><use xlink:href="#22" y="26.052"/><use xlink:href="#23" y="28.223"/><use xlink:href="#24" y="30.394"/></svg><svg x="2040"><use xlink:href="#a"/><use xlink:href="#b" x="40.996" y="30.369"/><use xlink:href="#9"/><use xlink:href="#10" y="2.171"/><use xlink:href="#11" y="4.342"/><use xlink:href="#12" y="6.513"/><use xlink:href="#13" y="8.684"/><use xlink:href="#14" y="10.855"/><use xlink:href="#25" y="13.026"/><use xlink:href="#27" y="15.197"/><use xlink:href="#30" y="17.368"/><use xlink:href="#32" y="19.539"/><use xlink:href="#20" y="21.71"/><use xlink:href="#21" y="23.881"/><use xlink:href="#22" y="26.052"/><use xlink:href="#23" y="28.223"/><use xlink:href="#24" y="30.394"/></svg><svg x="2100"><use xlink:href="#a"/><use xlink:href="#b" x="-.004" y="13.001"/><use xlink:href="#9"/><use xlink:href="#10" y="2.171"/><use xlink:href="#11" y="4.342"/><use xlink:href="#12" y="6.513"/><use xlink:href="#13" y="8.684"/><use xlink:href="#14" y="10.855"/></svg><svg x="2160"><use xlink:href="#a"/><use xlink:href="#b" x="40.996" y="30.369"/><use xlink:href="#9"/><use xlink:href="#10" y="2.171"/><use xlink:href="#11" y="4.342"/><use xlink:href="#12" y="6.513"/><use xlink:href="#13" y="8.684"/><use xlink:href="#14" y="10.855"/><use xlink:href="#25" y="13.026"/><use xlink:href="#27" y="15.197"/><use xlink:href="#30" y="17.368"/><use xlink:href="#33" y="19.539"/><use xlink:href="#34" y="21.71"/><use xlink:href="#21" y="23.881"/><use xlink:href="#22" y="26.052"/><use xlink:href="#23" y="28.223"/><use xlink:href="#24" y="30.394"/></svg><svg x="2220"><use xlink:href="#a"/><use xlink:href="#b" x="40.996" y="30.369"/><use xlink:href="#9"/><use xlink:href="#10" y="2.171"/><use xlink:href="#11" y="4.342"/><use xlink:href="#12" y="6.513"/><use xlink:href="#13" y="8.684"/><use xlink:href="#14" y="10.855"/><use xlink:href="#25" y="13.026"/><use xlink:href="#27" y="15.197"/><use xlink:href="#30" y="17.368"/><use xlink:href="#33" y="19.539"/><use xlink:href="#34" y="21.71"/><use xlink:href="#21" y="23.881"/><use xlink:href="#22" y="26.052"/><use xlink:href="#23" y="28.223"/><use xlink:href="#24" y="30.394"/></svg><svg x="2280"><use xlink:href="#a"/><use xlink:href="#b" x="-.004" y="13.001"/><use xlink:href="#9"/><use xlink:href="#10" y="2.171"/><use xlink:href="#11" y="4.342"/><use xlink:href="#12" y="6.513"/><use xlink:href="#13" y="8.684"/><use xlink:href="#14" y="10.855"/></svg><svg x="2340"><use xlink:href="#a"/><use xlink:href="#b" x="40.996" y="30.369"/><use xlink:href="#9"/><use xlink:href="#10" y="2.171"/><use xlink:href="#11" y="4.342"/><use xlink:href="#12" y="6.513"/><use xlink:href="#13" y="8.684"/><use xlink:href="#14" y="10.855"/><use xlink:href="#25" y="13.026"/><use xlink:href="#27" y="15.197"/><use xlink:href="#30" y="17.368"/><use xlink:href="#33" y="19.539"/><use xlink:href="#35" y="21.71"/><use xlink:href="#21" y="23.881"/><use xlink:href="#22" y="26.052"/><use xlink:href="#23" y="28.223"/><use xlink:href="#24" y="30.394"/></svg><svg x="2400"><use xlink:href="#a"/><use xlink:href="#b" x="40.996" y="30.369"/><use xlink:href="#9"/><use xlink:href="#10" y="2.171"/><use xlink:href="#11" y="4.342"/><use xlink:href="#12" y="6.513"/><use xlink:href="#13" y="8.684"/><use xlink:href="#14" y="10.855"/><use xlink:href="#25" y="13.026"/><use xlink:href="#27" y="15.197"/><use xlink:href="#30" y="17.368"/><use xlink:href="#33" y="19.539"/><use xlink:href="#35" y="21.71"/><use xlink:href="#21" y="23.881"/><use xlink:href="#22" y="26.052"/><use xlink:href="#23" y="28.223"/><use xlink:href="#24" y="30.394"/></svg><svg x="2460"><use xlink:href="#a"/><use xlink:href="#b" x="-.004" y="13.001"/><use xlink:href="#9"/><use xlink:href="#10" y="2.171"/><use xlink:href="#11" y="4.342"/><use xlink:href="#12" y="6.513"/><use xlink:href="#13" y="8.684"/><use xlink:href="#14" y="10.855"/></svg><svg x="2520"><use xlink:href="#a"/><use xlink:href="#b" x="40.996" y="30.369"/><use xlink:href="#9"/><use xlink:href="#10" y="2.171"/><use xlink:href="#11" y="4.342"/><use xlink:href="#12" y="6.513"/><use xlink:href="#13" y="8.684"/><use xlink:href="#14" y="10.855"/><use xlink:href="#25" y="13.026"/><use xlink:href="#30" y="15.197"/><use xlink:href="#33" y="17.368"/><use xlink:href="#36" y="19.539"/><use xlink:href="#37" y="21.71"/><use xlink:href="#22" y="23.881"/><use xlink:href="#23" y="26.052"/><use xlink:href="#38" y="28.223"/><use xlink:href="#24" y="30.394"/></svg><svg x="2580"><use xlink:href="#a"/><use xlink:href="#b" x="40.996" y="30.369"/><use xlink:href="#9"/><use xlink:href="#10" y="2.171"/><use xlink:href="#11" y="4.342"/><use xlink:href="#12" y="6.513"/><use xlink:href="#13" y="8.684"/><use xlink:href="#14" y="10.855"/><use xlink:href="#25" y="13.026"/><use xlink:href="#30" y="15.197"/><use xlink:href="#33" y="17.368"/><use xlink:href="#36" y="19.539"/><use xlink:href="#37" y="21.71"/><use xlink:href="#22" y="23.881"/><use xlink:href="#23" y="26.052"/><use xlink:href="#38" y="28.223"/><use xlink:href="#24" y="30.394"/></svg><svg x="2640"><use xlink:href="#a"/><use xlink:href="#b" x="-.004" y="13.001"/><use xlink:href="#9"/><use xlink:href="#10" y="2.171"/><use xlink:href="#11" y="4.342"/><use xlink:href="#12" y="6.513"/><use xlink:href="#13" y="8.684"/><use xlink:href="#14" y="10.855"/></svg><svg x="2700"><use xlink:href="#a"/><use xlink:href="#b" x="40.996" y="30.369"/><use xlink:href="#9"/><use xlink:href="#10" y="2.171"/><use xlink:href="#11" y="4.342"/><use xlink:href="#12" y="6.513"/><use xlink:href="#13" y="8.684"/><use xlink:href="#14" y="10.855"/><use xlink:href="#25" y="13.026"/><use xlink:href="#30" y="15.197"/><use xlink:href="#33" y="17.368"/><use xlink:href="#36" y="19.539"/><text y="23.38" class="f">❯◉</text><text x="3.006" y="23.38" class="f">README.md</text><use xlink:href="#22" y="23.881"/><use xlink:href="#23" y="26.052"/><use xlink:href="#38" y="28.223"/><use xlink:href="#24" y="30.394"/></svg><svg x="2760"><use xlink:href="#a"/><use xlink:href="#b" x="-.004" y="13.001"/><use xlink:href="#9"/><use xlink:href="#10" y="2.171"/><use xlink:href="#11" y="4.342"/><use xlink:href="#12" y="6.513"/><use xlink:href="#13" y="8.684"/><use xlink:href="#14" y="10.855"/></svg><svg x="2820"><use xlink:href="#a"/><use xlink:href="#b" x="26.996" y="15.172"/><use xlink:href="#9"/><use xlink:href="#10" y="2.171"/><use xlink:href="#11" y="4.342"/><use xlink:href="#12" y="6.513"/><use xlink:href="#13" y="8.684"/><use xlink:href="#14" y="10.855"/><use xlink:href="#39" y="13.026"/><use xlink:href="#40" y="15.197"/></svg><svg x="2880"><use xlink:href="#a"/><use xlink:href="#b" x="-.004" y="15.172"/><use xlink:href="#9"/><use xlink:href="#10" y="2.171"/><use xlink:href="#11" y="4.342"/><use xlink:href="#12" y="6.513"/><use xlink:href="#13" y="8.684"/><use xlink:href="#14" y="10.855"/><use xlink:href="#39" y="13.026"/><use xlink:href="#40" y="15.197"/></svg><svg x="2940"><use xlink:href="#a"/><use xlink:href="#b" x="26.996" y="15.172"/><use xlink:href="#9"/><use xlink:href="#10" y="2.171"/><use xlink:href="#11" y="4.342"/><use xlink:href="#12" y="6.513"/><use xlink:href="#13" y="8.684"/><use xlink:href="#14" y="10.855"/><use xlink:href="#39" y="13.026"/><use xlink:href="#40" y="15.197"/></svg><svg x="3000"><use xlink:href="#a"/><use xlink:href="#b" x="-.004" y="17.343"/><use xlink:href="#9"/><use xlink:href="#10" y="2.171"/><use xlink:href="#11" y="4.342"/><use xlink:href="#12" y="6.513"/><use xlink:href="#13" y="8.684"/><use xlink:href="#14" y="10.855"/><use xlink:href="#39" y="13.026"/><use xlink:href="#40" y="15.197"/></svg><svg x="3060"><use xlink:href="#a"/><use xlink:href="#b" x="9.996" y="17.343"/><use xlink:href="#9"/><use xlink:href="#10" y="2.171"/><use xlink:href="#11" y="4.342"/><use xlink:href="#12" y="6.513"/><use xlink:href="#13" y="8.684"/><use xlink:href="#14" y="10.855"/><use xlink:href="#39" y="13.026"/><use xlink:href="#40" y="15.197"/><use xlink:href="#1" y="17.368"/></svg><svg x="3120"><use xlink:href="#a"/><use xlink:href="#b" x="10.996" y="17.343"/><use xlink:href="#9"/><use xlink:href="#10" y="2.171"/><use xlink:href="#11" y="4.342"/><use xlink:href="#12" y="6.513"/><use xlink:href="#13" y="8.684"/><use xlink:href="#14" y="10.855"/><use xlink:href="#39" y="13.026"/><use xlink:href="#40" y="15.197"/><use xlink:href="#2" y="17.368"/></svg><svg x="3180"><use xlink:href="#a"/><use xlink:href="#b" x="11.996" y="17.343"/><use xlink:href="#9"/><use xlink:href="#10" y="2.171"/><use xlink:href="#11" y="4.342"/><use xlink:href="#12" y="6.513"/><use xlink:href="#13" y="8.684"/><use xlink:href="#14" y="10.855"/><use xlink:href="#39" y="13.026"/><use xlink:href="#40" y="15.197"/><use xlink:href="#3" y="17.368"/></svg><svg x="3240"><use xlink:href="#a"/><use xlink:href="#b" x="-.004" y="19.514"/><use xlink:href="#9"/><use xlink:href="#10" y="2.171"/><use xlink:href="#11" y="4.342"/><use xlink:href="#12" y="6.513"/><use xlink:href="#13" y="8.684"/><use xlink:href="#14" y="10.855"/><use xlink:href="#39" y="13.026"/><use xlink:href="#40" y="15.197"/><use xlink:href="#3" y="17.368"/></svg><svg x="3300"><use xlink:href="#a"/><use xlink:href="#b" x="-.004" y="32.54"/><use xlink:href="#11"/><use xlink:href="#12" y="2.171"/><use xlink:href="#13" y="4.342"/><use xlink:href="#14" y="6.513"/><use xlink:href="#39" y="8.684"/><use xlink:href="#40" y="10.855"/><use xlink:href="#3" y="13.026"/><use xlink:href="#41" y="15.197"/><use xlink:href="#42" y="17.368"/><use xlink:href="#43" y="19.539"/><use xlink:href="#44" y="21.71"/><use xlink:href="#45" y="23.881"/><use xlink:href="#46" y="26.052"/><use xlink:href="#47" y="28.223"/><use xlink:href="#48" y="30.394"/></svg><svg x="3360"><use xlink:href="#a"/><use xlink:href="#b" x="9.996" y="32.54"/><use xlink:href="#11"/><use xlink:href="#12" y="2.171"/><use xlink:href="#13" y="4.342"/><use xlink:href="#14" y="6.513"/><use xlink:href="#39" y="8.684"/><use xlink:href="#40" y="10.855"/><use xlink:href="#3" y="13.026"/><use xlink:href="#41" y="15.197"/><use xlink:href="#42" y="17.368"/><use xlink:href="#43" y="19.539"/><use xlink:href="#44" y="21.71"/><use xlink:href="#45" y="23.881"/><use xlink:href="#46" y="26.052"/><use xlink:href="#47" y="28.223"/><use xlink:href="#48" y="30.394"/><use xlink:href="#1" y="32.565"/></svg><svg x="3420"><use xlink:href="#a"/><use xlink:href="#b" x="-.004" y="32.54"/><use xlink:href="#12"/><use xlink:href="#13" y="2.171"/><use xlink:href="#14" y="4.342"/><use xlink:href="#39" y="6.513"/><use xlink:href="#40" y="8.684"/><use xlink:href="#3" y="10.855"/><use xlink:href="#41" y="13.026"/><use xlink:href="#42" y="15.197"/><use xlink:href="#43" y="17.368"/><use xlink:href="#44" y="19.539"/><use xlink:href="#45" y="21.71"/><use xlink:href="#46" y="23.881"/><use xlink:href="#47" y="26.052"/><use xlink:href="#48" y="28.223"/><use xlink:href="#1" y="30.394"/></svg><svg x="3480"><use xlink:href="#a"/><use xlink:href="#b" x="9.996" y="32.54"/><use xlink:href="#12"/><use xlink:href="#13" y="2.171"/><use xlink:href="#14" y="4.342"/><use xlink:href="#39" y="6.513"/><use xlink:href="#40" y="8.684"/><use xlink:href="#3" y="10.855"/><use xlink:href="#41" y="13.026"/><use xlink:href="#42" y="15.197"/><use xlink:href="#43" y="17.368"/><use xlink:href="#44" y="19.539"/><use xlink:href="#45" y="21.71"/><use xlink:href="#46" y="23.881"/><use xlink:href="#47" y="26.052"/><use xlink:href="#48" y="28.223"/><use xlink:href="#1" y="30.394"/><use xlink:href="#1" y="32.565"/></svg></svg></g></g></svg></svg>